<svg xmlns="http://www.w3.org/2000/svg" viewBox="0 0 400 400" width="400" height="400">
  <defs>
    <linearGradient id="bgA" x1="0" y1="0" x2="1" y2="1">
      <stop offset="0%" stop-color="#1a1a2e"/>
      <stop offset="100%" stop-color="#16213e"/>
    </linearGradient>
    <linearGradient id="boltA" x1="0" y1="0" x2="1" y2="1">
      <stop offset="0%" stop-color="#DD0031"/>
      <stop offset="100%" stop-color="#f44336"/>
    </linearGradient>
    <linearGradient id="accentA" x1="0" y1="0" x2="1" y2="1">
      <stop offset="0%" stop-color="#533483"/>
      <stop offset="100%" stop-color="#DD0031"/>
    </linearGradient>
  </defs>

  <circle cx="200" cy="200" r="190" fill="url(#bgA)" stroke="url(#accentA)" stroke-width="4"/>

  <path d="M200 60 L340 300 L200 250 L60 300 Z" fill="none" stroke="#DD0031" stroke-width="2" opacity="0.12"/>
  <path d="M200 120 L280 290 L200 255 L120 290 Z" fill="none" stroke="#DD0031" stroke-width="1.5" opacity="0.12"/>
  <path d="M200 60 L200 300" fill="none" stroke="#DD0031" stroke-width="1.5" opacity="0.08"/>

  <path d="M180 110 L140 210 L175 210 L160 290 L260 180 L215 180 L240 110 Z"
        fill="url(#boltA)" stroke="#fff" stroke-width="2" stroke-linejoin="round"/>

  <circle cx="100" cy="140" r="6" fill="#DD0031" opacity="0.8"/>
  <circle cx="300" cy="160" r="5" fill="#DD0031" opacity="0.8"/>
  <circle cx="270" cy="280" r="4" fill="#DD0031" opacity="0.6"/>
  <circle cx="120" cy="270" r="5" fill="#DD0031" opacity="0.8"/>

  <line x1="100" y1="140" x2="180" y2="110" stroke="#DD0031" stroke-width="1.5" opacity="0.4"/>
  <line x1="300" y1="160" x2="240" y2="110" stroke="#DD0031" stroke-width="1.5" opacity="0.4"/>
  <line x1="270" y1="280" x2="160" y2="290" stroke="#DD0031" stroke-width="1.5" opacity="0.4"/>
  <line x1="120" y1="270" x2="160" y2="290" stroke="#DD0031" stroke-width="1.5" opacity="0.4"/>
  <line x1="100" y1="140" x2="140" y2="210" stroke="#DD0031" stroke-width="1" opacity="0.3"/>
  <line x1="300" y1="160" x2="260" y2="180" stroke="#DD0031" stroke-width="1" opacity="0.3"/>

  <text x="200" y="355" text-anchor="middle" font-family="'Segoe UI', system-ui, -apple-system, sans-serif"
        font-size="52" font-weight="800" fill="#DD0031" letter-spacing="4">
    CORE
  </text>
</svg>
