<?xml version="1.0" standalone="no"?>
<!DOCTYPE svg PUBLIC "-//W3C//DTD SVG 20010904//EN"
 "http://www.w3.org/TR/2001/REC-SVG-20010904/DTD/svg10.dtd">
<svg version="1.0" xmlns="http://www.w3.org/2000/svg"
 width="1536.000000pt" height="1024.000000pt" viewBox="0 0 1536.000000 1024.000000"
 preserveAspectRatio="xMidYMid meet">
<metadata>
Created by potrace 1.16, written by Peter Selinger 2001-2019
</metadata>
<g transform="translate(0.000000,1024.000000) scale(0.100000,-0.100000)"
fill="#000000" stroke="none">
<path fill="#000000" stroke="none" d="M7235 7091 c-48 -12 -108 -47 -136 -78
-128 -137 -90 -365 76 -448 51 -26 71 -30 135 -29 94 1 153 27 215 96 159 177
45 446 -196 463 -35 2 -77 1 -94 -4z"/>
<path fill="#ffffff" stroke="none" d="M7501 6900 c52 -28 62 -120 18 -166
-46 -49 -139 -23 -155 41 -22 89 61 165 137 125z"/>
<path fill="#000000" stroke="none" d="M7984 7076 c-57 -27 -110 -84 -124
-136 -15 -52 -12 -136 6 -178 46 -110 174 -171 290 -137 78 22 146 91 169 169
58 198 -151 371 -341 282z"/>
<path fill="#ffffff" stroke="none" d="M8279 6924 c27 -35 27 -81 -1 -111 -43
-46 -114 -19 -124 47 -13 77 78 123 125 64z"/>
<path fill="#000000" stroke="none" d="M10864 4122 c5 -9 -13 -11 -68 -8 -73
5 -76 4 -77 -17 0 -12 -3 -16 -6 -9 -2 6 -11 12 -19 12 -9 0 -12 -5 -8 -12 6
-10 4 -10 -7 0 -7 6 -17 12 -22 12 -4 0 -5 -6 -2 -12 4 -7 0 -6 -7 4 -11 13
-28 16 -78 14 -89 -4 -87 -3 -93 -27 -4 -16 -11 -20 -26 -16 -12 3 -24 1 -27
-4 -9 -15 -24 -10 -24 9 0 13 -2 14 -9 4 -4 -7 -18 -14 -29 -15 -12 -1 -22 -5
-22 -9 0 -4 -12 -8 -26 -8 -14 0 -23 -4 -20 -9 4 -5 -3 -7 -14 -4 -13 3 -20 0
-20 -8 0 -11 -2 -11 -10 1 -8 13 -10 12 -10 -2 0 -10 -5 -18 -11 -18 -5 0 -7
-4 -4 -10 3 -6 -1 -7 -9 -4 -9 3 -16 2 -16 -3 0 -13 -33 -12 -42 1 -4 6 -9 4
-14 -7 -3 -9 -12 -17 -20 -17 -8 0 -14 -5 -14 -11 0 -7 -9 -9 -21 -6 -26 7
-49 -1 -49 -18 0 -7 -17 -23 -37 -36 -39 -23 -44 -26 -65 -28 -9 -1 -9 -4 -1
-12 12 -12 7 -39 -8 -39 -5 0 -9 14 -9 31 0 25 -3 29 -13 20 -8 -6 -17 -7 -21
-3 -5 4 -7 0 -6 -8 4 -27 0 -41 -9 -35 -5 3 -13 0 -17 -6 -4 -8 -9 -7 -15 2
-6 10 -9 10 -9 2 0 -15 -52 -69 -62 -65 -7 2 -9 -3 -8 -23 1 -11 -25 -33 -33
-28 -4 2 -10 -9 -13 -26 -4 -17 -13 -36 -21 -42 -8 -7 -13 -8 -12 -3 1 5 1 20
0 34 -1 20 -3 22 -11 10 -9 -13 -10 -13 -11 0 0 8 -5 0 -10 -17 -5 -18 -14
-32 -20 -30 -6 1 -13 -6 -14 -15 -2 -10 2 -18 8 -18 7 0 5 -6 -4 -13 -9 -7
-19 -28 -23 -48 -3 -19 -14 -44 -24 -55 -10 -11 -16 -26 -14 -33 3 -9 0 -11
-8 -6 -8 5 -11 4 -6 -3 8 -13 -12 -100 -25 -108 -5 -3 -6 3 -3 13 6 15 4 15
-9 -2 -9 -11 -12 -26 -8 -34 5 -7 0 -35 -11 -63 -10 -27 -16 -53 -13 -59 4 -5
2 -9 -3 -9 -4 0 -9 -24 -9 -52 -2 -79 -2 -80 -13 -73 -5 3 -10 17 -10 31 0 13
-4 24 -10 24 -5 0 -6 -7 -3 -17 4 -9 2 -14 -3 -11 -5 4 -10 -22 -10 -59 -1
-36 -6 -68 -10 -72 -5 -3 -10 -24 -11 -46 -1 -22 -3 -70 -5 -108 -1 -37 1 -67
5 -67 4 0 3 -9 -3 -19 -7 -14 -7 -22 1 -26 6 -4 8 -13 5 -21 -3 -8 -1 -14 5
-14 7 0 9 -12 7 -30 -2 -16 0 -32 6 -34 8 -3 8 -5 0 -5 -10 -1 -10 -17 2 -93
6 -35 16 -44 46 -39 4 0 5 -6 2 -14 -3 -8 4 -30 16 -50 12 -19 19 -38 17 -42
-3 -5 1 -13 8 -20 11 -10 14 -10 18 0 4 10 29 -34 31 -56 1 -4 7 -12 15 -17 8
-4 16 -15 17 -23 5 -35 16 -57 30 -57 8 0 13 -4 10 -9 -6 -9 20 -67 34 -76 5
-3 7 -12 3 -20 -3 -8 0 -15 6 -15 6 0 11 9 11 20 0 11 5 20 11 20 5 0 7 -4 4
-10 -3 -5 -1 -10 5 -10 6 0 8 -4 5 -10 -3 -5 -1 -10 5 -10 6 0 9 -4 5 -10 -3
-5 4 -19 17 -32 12 -12 24 -31 25 -41 2 -10 12 -28 23 -40 11 -12 18 -28 15
-36 -3 -9 -3 -12 1 -9 8 8 39 -29 85 -102 28 -46 35 -51 37 -32 2 12 9 22 17
22 13 0 52 -47 73 -90 28 -55 42 -75 57 -80 9 -3 17 -10 17 -15 1 -12 59 -53
73 -51 6 0 9 5 7 10 -2 5 11 -3 28 -18 18 -14 36 -26 41 -26 5 0 9 -12 9 -26
0 -14 4 -23 9 -19 6 3 13 0 18 -8 11 -18 59 -47 78 -47 8 0 15 -4 15 -9 0 -13
32 -23 42 -13 6 6 23 5 44 -1 26 -8 34 -16 34 -34 0 -13 4 -22 9 -19 5 3 24 0
42 -8 58 -23 109 -29 109 -13 0 8 7 18 16 21 15 6 15 4 3 -10 -13 -16 -12 -16
7 -6 14 7 24 8 31 1 5 -5 23 -12 39 -15 16 -3 31 -8 34 -12 3 -4 21 -7 42 -7
20 0 34 -3 32 -6 -5 -9 22 -19 30 -12 3 4 6 18 6 32 0 15 3 21 8 15 4 -7 21
-11 37 -10 24 1 31 -3 33 -22 2 -12 8 -20 13 -17 5 4 9 1 9 -6 0 -9 3 -9 15 1
8 6 23 9 34 5 13 -4 23 0 30 12 6 11 11 13 11 5 0 -7 5 -10 10 -7 6 3 10 1 10
-6 0 -7 8 -5 20 6 22 20 75 31 64 13 -5 -7 -2 -8 6 -3 7 4 16 2 20 -5 9 -15
70 -20 70 -6 0 6 5 3 11 -6 11 -19 39 -25 39 -8 0 5 7 7 16 3 10 -4 17 1 21
16 3 11 13 21 22 22 9 0 26 2 39 5 18 3 22 -1 22 -21 0 -14 5 -25 10 -25 6 0
10 3 10 8 0 4 14 8 30 9 17 1 30 -1 30 -6 0 -5 11 -6 25 -3 14 2 25 9 25 14 0
6 7 8 15 4 9 -3 15 0 15 9 0 8 6 15 13 16 6 0 24 2 40 4 17 2 27 -1 27 -9 0
-9 14 -11 52 -8 53 4 123 34 111 46 -3 3 1 6 9 6 9 0 21 7 28 15 8 9 30 15 56
15 33 0 44 4 44 16 0 9 5 14 11 12 7 -2 24 9 40 24 15 15 34 28 43 28 8 0 27
17 41 37 22 33 30 36 26 11 -1 -12 33 4 52 24 10 10 22 18 28 18 6 0 8 4 4 9
-3 5 -1 12 5 16 6 3 10 -4 10 -16 0 -12 3 -19 8 -15 4 4 7 11 7 15 0 14 68 80
77 75 5 -3 8 -2 7 3 -4 16 13 43 24 36 6 -4 8 0 4 10 -5 12 -1 17 13 17 10 0
22 9 25 21 4 11 9 18 13 15 3 -3 10 4 17 17 7 13 20 22 33 21 16 0 21 4 17 14
-4 12 -3 12 9 3 11 -9 15 -8 21 6 5 10 7 23 6 30 -1 6 12 20 29 30 17 10 28
23 25 31 -2 7 0 10 5 7 6 -3 10 0 10 8 0 8 7 27 14 43 8 15 12 32 9 37 -3 6
-1 7 5 3 7 -4 12 -2 12 4 0 6 4 9 9 6 11 -7 34 20 38 42 1 9 9 22 18 28 12 9
13 13 3 17 -9 3 -7 7 6 13 33 13 51 38 54 74 1 19 10 40 18 47 9 6 13 16 10
22 -4 5 2 15 13 21 13 7 18 16 14 27 -4 11 -3 14 5 9 7 -4 12 -1 12 9 0 10 5
13 13 9 6 -4 9 -4 5 0 -3 4 -2 21 2 37 5 18 5 27 -1 24 -5 -4 -9 -1 -9 4 0 6
7 11 15 11 18 0 49 45 40 60 -3 5 -2 10 2 10 5 0 9 9 9 20 0 11 -5 20 -10 20
-5 0 -1 7 10 15 14 11 15 14 4 15 -13 0 -13 1 0 10 12 8 12 10 1 10 -10 0 -11
4 -3 13 11 13 22 104 14 112 -3 3 -5 24 -5 48 0 23 -4 45 -11 49 -8 6 -8 8 0
8 12 0 10 52 -2 72 -4 7 -2 8 4 4 7 -4 12 -2 12 3 0 6 -4 11 -10 11 -5 0 -7
13 -3 30 3 19 1 30 -6 30 -6 0 -10 3 -10 8 1 4 1 21 0 37 -2 28 -3 29 -11 8
-5 -13 -15 -23 -22 -22 -10 0 -10 2 -1 6 10 3 9 11 -2 33 -8 15 -12 30 -9 33
3 3 -2 17 -11 31 -10 14 -14 26 -9 26 4 0 -3 11 -16 25 -13 14 -18 25 -12 25
7 0 12 5 12 11 0 5 -4 8 -9 5 -11 -7 -36 22 -28 31 4 3 -1 12 -11 19 -13 10
-14 13 -3 14 11 0 10 4 -5 16 -10 8 -13 12 -5 8 10 -5 12 -3 6 7 -17 29 -28
40 -34 31 -3 -5 -17 5 -31 22 -14 16 -18 26 -10 21 12 -7 13 -6 3 7 -7 8 -9
19 -5 23 4 5 2 5 -4 2 -7 -4 -14 4 -18 19 -4 15 -10 24 -13 21 -7 -7 -33 18
-33 31 0 6 -18 29 -40 51 -22 22 -39 44 -38 48 3 10 -33 53 -44 53 -5 0 -8 -7
-8 -15 0 -18 -16 -20 -26 -3 -5 7 -3 8 6 3 17 -10 7 6 -32 56 -15 20 -28 42
-28 48 0 6 -7 11 -15 11 -8 0 -14 3 -12 8 1 4 -2 8 -7 9 -15 2 -28 32 -20 45
4 7 3 8 -5 4 -6 -4 -14 0 -17 9 -4 9 -13 14 -21 11 -8 -3 -11 -1 -8 4 3 6 1
10 -5 10 -6 0 -8 5 -4 12 4 6 3 8 -4 4 -6 -3 -18 4 -26 16 -11 15 -16 18 -16
8 0 -13 -2 -13 -9 -1 -5 8 -14 10 -21 6 -9 -5 -11 -4 -6 3 4 7 2 12 -3 12 -6
0 -11 7 -11 16 0 8 -4 13 -9 9 -5 -3 -16 2 -24 10 -9 8 -21 15 -27 15 -7 0
-10 6 -7 14 4 10 0 12 -14 9 -11 -3 -19 0 -19 7 0 7 -6 10 -14 7 -8 -3 -17 1
-20 9 -3 8 -12 14 -21 14 -8 0 -15 5 -15 10 0 6 -7 10 -15 10 -8 0 -31 9 -51
21 -20 11 -42 18 -49 15 -18 -7 -27 5 -15 19 7 8 6 12 -3 12 -27 0 -133 38
-145 52 -11 13 -12 13 -6 1 7 -13 5 -13 -9 -2 -9 8 -20 11 -26 8 -5 -3 -12 0
-14 6 -3 7 -6 3 -6 -9 -1 -26 -16 -30 -37 -8 -8 8 -21 12 -29 9 -8 -4 -15 -1
-15 6 0 7 -7 10 -16 6 -8 -3 -13 -2 -10 2 3 5 -26 9 -63 10 -63 2 -69 0 -75
-21 -4 -13 -9 -18 -13 -11 -12 17 -60 34 -108 37 -11 1 -23 7 -27 12 -5 6 -8
4 -8 -5 0 -12 -9 -15 -40 -12 -29 3 -40 0 -40 -9 0 -11 -3 -11 -10 1 -6 10
-10 11 -10 3 0 -16 -11 -16 -47 -1 -44 18 -65 20 -57 6 6 -10 5 -10 -8 -1 -8
7 -17 10 -20 8 -3 -3 -17 -1 -32 4 -14 6 -26 7 -26 2 0 -5 -12 -8 -26 -6 -14
1 -32 -4 -40 -12 -9 -10 -14 -10 -14 -3 0 7 -7 10 -15 6 -9 -3 -15 0 -15 9 0
7 -5 17 -12 21 -7 4 -8 3 -4 -4z"/>
<path fill="#ffffff" stroke="none" d="M9700 3606 c0 -3 -4 -8 -10 -11 -5 -3
-10 -1 -10 4 0 6 5 11 10 11 6 0 10 -2 10 -4z"/>
<path fill="#ffffff" stroke="none" d="M11507 2899 c70 -26 123 -107 123 -188
0 -205 -250 -300 -379 -144 -18 21 -34 48 -37 60 -4 13 -9 21 -13 19 -10 -6 4
104 16 135 18 43 65 91 108 110 45 21 138 25 182 8z"/>
<path fill="#ffffff" stroke="none" d="M11005 2876 c134 -62 184 -221 109
-343 -59 -96 -172 -139 -280 -107 -145 42 -214 192 -150 330 58 124 200 177
321 120z"/>
<path fill="#ffffff" stroke="none" d="M11186 2598 c-4 7 -2 12 7 12 8 0 24
-15 35 -34 11 -18 45 -49 76 -67 30 -19 56 -40 56 -46 0 -15 -2 -15 -24 -7 -9
3 -13 10 -10 15 3 5 0 9 -5 9 -17 0 -13 -18 7 -29 15 -9 14 -11 -8 -11 -14 -1
-19 -4 -11 -7 18 -7 142 27 135 38 -3 5 2 6 11 2 10 -3 20 -1 24 5 4 7 21 14
38 18 44 9 53 -21 13 -44 -33 -19 -36 -28 -16 -51 14 -16 19 -48 17 -103 -2
-43 -62 -104 -112 -112 -84 -13 -179 64 -179 145 l0 32 -87 -7 c-93 -6 -110
-2 -110 27 0 13 10 17 46 18 25 0 69 4 96 9 l50 7 -43 2 c-26 0 -41 5 -37 11
3 5 1 18 -4 27 -10 17 -10 16 -11 -2 l-1 -20 -9 20 c-7 17 -9 16 -9 -9 -1 -19
-5 -26 -10 -20 -17 16 -19 59 -5 79 10 14 14 15 14 4 1 -10 4 -9 15 5 8 10 12
23 9 27 -3 5 -1 9 5 9 6 0 8 7 5 15 -4 8 -3 22 0 31 5 14 9 14 23 3 12 -10 14
-10 9 -1z"/>
<path fill="#ffffff" stroke="none" d="M9447 2458 c-3 -8 -6 -5 -6 6 -1 11 2
17 5 13 3 -3 4 -12 1 -19z"/>
<path fill="#ffffff" stroke="none" d="M12878 2404 c-1 -9 -10 -20 -18 -22
-13 -5 -13 -3 -1 11 7 9 10 25 7 34 -6 14 -4 15 4 7 7 -7 10 -20 8 -30z"/>
<path fill="#ffffff" stroke="none" d="M11200 2341 c0 -4 -11 -6 -25 -3 -14 2
-25 6 -25 8 0 2 11 4 25 4 14 0 25 -4 25 -9z"/>
<path fill="#000000" stroke="none" d="M11366 2865 c-50 -18 -82 -49 -102
-101 -33 -88 0 -179 80 -215 52 -23 90 -23 142 0 98 45 130 180 63 265 -40 51
-118 73 -183 51z"/>
<path fill="#ffffff" stroke="none" d="M11530 2740 c24 -24 26 -57 3 -82 -18
-20 -63 -24 -81 -6 -21 21 -15 75 10 92 30 21 44 20 68 -4z"/>
<path fill="#000000" stroke="none" d="M10825 2836 c-118 -53 -153 -226 -63
-313 84 -81 206 -84 280 -6 122 128 33 334 -144 333 -24 -1 -56 -7 -73 -14z"/>
<path fill="#ffffff" stroke="none" d="M11044 2684 c21 -20 20 -73 -1 -96 -37
-41 -103 -10 -103 48 0 40 22 64 60 64 16 0 36 -7 44 -16z"/>
<path fill="#000000" stroke="none" d="M11175 2550 c-3 -5 -1 -10 4 -10 6 0
11 5 11 10 0 6 -2 10 -4 10 -3 0 -8 -4 -11 -10z"/>
<path fill="#000000" stroke="none" d="M11248 2423 c6 -2 18 -2 25 0 6 3 1 5
-13 5 -14 0 -19 -2 -12 -5z"/>
<path fill="#000000" stroke="none" d="M9507 3369 c7 -7 15 -10 18 -7 3 3 -2
9 -12 12 -14 6 -15 5 -6 -5z"/>
<path fill="#000000" stroke="none" d="M7495 3200 c-130 -20 -322 -84 -460
-153 -81 -40 -206 -121 -231 -149 l-21 -23 24 -95 c50 -203 133 -425 210 -568
75 -138 260 -289 561 -457 79 -45 108 -56 130 -52 62 12 385 209 494 300 128
107 262 385 353 731 41 154 48 136 -95 231 -173 115 -374 196 -574 230 -93 16
-302 18 -391 5z"/>
<path fill="#ffffff" stroke="none" d="M7457 3020 c75 -33 139 -94 175 -168
29 -57 33 -77 33 -142 0 -90 -14 -140 -56 -203 -58 -88 -187 -157 -293 -157
-54 0 -138 25 -185 54 -59 37 -117 108 -141 172 -29 79 -25 196 10 269 44 92
138 170 235 196 48 13 172 1 222 -21z"/>
<path fill="#ffffff" stroke="none" d="M8220 3019 c181 -85 231 -298 105 -447
-120 -142 -357 -147 -479 -11 -142 158 -78 398 126 471 74 26 175 21 248 -13z"/>
<path fill="#ffffff" stroke="none" d="M8268 2404 c3 -20 -19 -34 -100 -63
l-26 -10 21 -41 c25 -53 33 -127 17 -174 -17 -53 -91 -113 -148 -122 -54 -8
-122 7 -163 37 -42 30 -80 100 -86 161 l-5 53 -137 0 -136 0 0 28 0 28 130 4
c181 5 417 51 537 105 55 24 92 22 96 -6z"/>
<path fill="#000000" stroke="none" d="M7235 2977 c-200 -66 -267 -293 -137
-464 13 -18 53 -47 90 -65 88 -43 172 -45 255 -5 216 106 218 408 2 516 -57
28 -153 37 -210 18z"/>
<path fill="#ffffff" stroke="none" d="M7494 2796 c45 -19 66 -52 66 -104 0
-37 -6 -50 -34 -78 -26 -26 -42 -34 -71 -34 -29 0 -45 8 -71 34 -29 29 -34 41
-34 79 0 48 26 92 64 107 30 12 42 12 80 -4z"/>
<path fill="#000000" stroke="none" d="M7988 2975 c-123 -45 -193 -193 -145
-308 54 -128 221 -186 351 -121 63 32 82 48 112 100 69 118 20 259 -111 320
-58 27 -147 31 -207 9z"/>
<path fill="#ffffff" stroke="none" d="M8261 2841 c61 -62 24 -171 -58 -171
-51 0 -93 45 -93 100 0 53 42 100 90 100 22 0 41 -9 61 -29z"/>
<path fill="#000000" stroke="none" d="M9426 3125 c4 -8 8 -15 10 -15 2 0 4 7
4 15 0 8 -4 15 -10 15 -5 0 -7 -7 -4 -15z"/>
<path fill="#000000" stroke="none" d="M4937 2916 c-219 -81 -233 -372 -22
-472 72 -34 136 -32 213 6 177 89 187 346 17 446 -56 32 -150 42 -208 20z"/>
<path fill="#ffffff" stroke="none" d="M5195 2765 c67 -66 -9 -173 -100 -139
-20 8 -45 56 -45 87 0 13 9 36 21 51 28 36 89 37 124 1z"/>
<path fill="#000000" stroke="none" d="M4170 2801 c-181 -60 -261 -246 -172
-404 34 -61 107 -120 169 -137 87 -25 195 1 271 65 82 69 108 219 56 323 -26
53 -81 105 -144 137 -38 20 -142 29 -180 16z"/>
<path fill="#ffffff" stroke="none" d="M4447 2606 c23 -20 28 -32 27 -67 -1
-35 -8 -48 -33 -71 -40 -36 -75 -36 -112 1 -84 85 28 215 118 137z"/>
<path fill="#000000" stroke="none" d="M9426 2422 c-2 -4 -1 -14 4 -22 7 -11
9 -9 7 8 -1 24 -3 26 -11 14z"/>
<path fill="#000000" stroke="none" d="M11908 1343 c7 -3 16 -2 19 1 4 3 -2 6
-13 5 -11 0 -14 -3 -6 -6z"/>
</g>
</svg>
