<?xml version="1.0" standalone="no"?>
<!DOCTYPE svg PUBLIC "-//W3C//DTD SVG 20010904//EN"
 "http://www.w3.org/TR/2001/REC-SVG-20010904/DTD/svg10.dtd">
<svg version="1.0" xmlns="http://www.w3.org/2000/svg"
 width="394.000000pt" height="508.000000pt" viewBox="0 0 394.000000 508.000000"
 preserveAspectRatio="xMidYMid meet">

<g transform="translate(0.000000,508.000000) scale(0.100000,-0.100000)"
fill="#000000" stroke="none">
<path d="M1524 3560 c-110 -36 -191 -131 -210 -246 -5 -34 4 -91 22 -139 4 -8
-7 -20 -28 -30 -18 -10 -141 -81 -273 -160 -411 -243 -465 -275 -474 -275 -5
0 -14 7 -22 16 -28 34 -133 77 -199 81 -118 9 -236 -58 -290 -163 -36 -70 -36
-188 0 -258 35 -68 101 -123 172 -144 l58 -17 0 -440 0 -440 -48 -17 c-64 -23
-112 -65 -147 -129 -26 -47 -30 -64 -30 -134 0 -93 21 -148 80 -213 65 -72
193 -116 287 -98 19 3 59 21 89 39 l55 33 345 -193 c284 -160 403 -225 415
-228 1 0 -2 -26 -7 -57 -44 -277 304 -448 519 -254 63 58 86 115 86 218 0 86
0 86 31 102 16 8 59 32 95 52 36 20 153 87 260 147 107 61 230 130 273 153 44
24 84 48 91 53 8 7 25 1 56 -19 154 -102 368 -36 448 139 69 150 -2 329 -153
386 l-43 17 -6 326 c-4 180 -9 379 -12 443 l-6 117 38 12 c165 54 244 221 184
384 -50 132 -220 215 -360 176 -30 -8 -100 -49 -144 -83 -7 -6 -69 26 -161 81
-83 49 -231 138 -330 197 -99 59 -204 122 -233 139 -50 29 -52 32 -45 61 16
61 8 177 -14 220 -27 51 -100 119 -150 140 -62 26 -149 28 -219 5z m377 -536
c52 -35 570 -346 655 -393 l41 -23 -5 -74 c-6 -92 14 -149 72 -212 43 -46 90
-75 144 -87 l32 -7 1 -246 c1 -136 4 -334 8 -441 5 -175 4 -194 -11 -202 -27
-15 -33 -11 -52 29 -20 41 -269 477 -461 807 -472 812 -512 885 -481 885 2 0
28 -16 57 -36z m-501 15 c0 -6 -13 -35 -29 -63 -162 -287 -649 -1158 -766
-1368 -128 -232 -151 -268 -172 -268 l-23 0 0 450 c0 400 2 450 15 450 45 0
144 80 178 144 17 32 22 61 23 130 l2 88 103 61 c153 89 471 277 569 335 92
55 100 58 100 41z m318 -69 c1 -4 48 -86 103 -181 56 -96 146 -253 202 -349
55 -96 178 -308 272 -470 95 -162 218 -376 275 -475 57 -99 109 -189 116 -200
12 -19 10 -26 -25 -72 -21 -28 -44 -71 -51 -97 l-13 -46 -259 0 -259 0 19 25
c34 43 45 111 28 175 -8 30 -12 58 -8 61 4 3 32 14 62 24 62 19 80 31 80 52 0
18 -28 15 -145 -16 -108 -28 -326 -67 -455 -81 -141 -16 -182 -27 -178 -48 4
-20 49 -22 191 -8 l87 8 0 -35 c0 -42 17 -93 42 -129 l19 -28 -580 0 -581 0 0
23 c0 30 -43 118 -69 141 -11 11 -21 23 -21 27 0 8 209 387 455 824 150 266
314 559 418 746 l81 146 96 -5 c52 -3 96 -8 98 -12z m890 -2032 c1 -7 -19 -24
-45 -38 -109 -59 -534 -298 -615 -346 l-87 -52 -22 24 c-55 59 -172 101 -253
92 -54 -6 -142 -47 -180 -82 -25 -24 -30 -25 -45 -13 -9 8 -169 99 -356 202
-187 104 -346 194 -354 201 -7 6 -11 16 -8 21 3 4 445 7 984 6 777 -2 979 -5
981 -15z"/>
<path d="M1183 2020 c-93 -19 -180 -85 -229 -172 -27 -49 -29 -61 -29 -158 0
-99 2 -109 32 -166 38 -72 75 -107 161 -147 57 -26 70 -29 150 -25 104 4 170
33 244 105 66 65 92 128 92 228 1 93 -26 164 -88 232 -69 77 -225 125 -333
103z m201 -81 c101 -52 153 -123 163 -224 12 -113 -58 -235 -164 -286 -75 -36
-180 -33 -258 6 -166 83 -204 311 -76 448 28 31 88 66 136 78 49 13 154 2 199
-22z"/>
<path d="M1347 1760 c-46 -36 -48 -119 -5 -160 32 -29 98 -27 127 4 44 46 34
138 -18 166 -31 16 -76 12 -104 -10z"/>
<path d="M1968 2021 c-94 -20 -185 -108 -214 -208 -52 -180 64 -354 254 -379
78 -10 183 26 238 83 63 64 88 124 88 208 1 82 -22 141 -79 203 -67 75 -188
114 -287 93z m183 -79 c151 -79 180 -262 60 -382 -35 -35 -63 -53 -102 -64
-65 -20 -73 -20 -138 0 -102 30 -170 120 -171 224 0 75 14 118 52 164 70 86
199 111 299 58z"/>
<path d="M2120 1793 c-41 -53 -5 -133 59 -133 36 0 71 38 71 77 0 76 -85 112
-130 56z"/>
</g>
</svg>
